<svg  viewBox="0 0 403 33" fill="none" xmlns="http://www.w3.org/2000/svg">
<path d="M0.5 8.66821C0.5 4.52608 3.85786 1.16821 8 1.16821H395C399.142 1.16821 402.5 4.52608 402.5 8.66821V24.6682C402.5 28.8103 399.142 32.1682 395 32.1682H7.99999C3.85785 32.1682 0.5 28.8103 0.5 24.6682V8.66821Z" fill="black"/>
<path d="M0.5 8.66821C0.5 4.52608 3.85786 1.16821 8 1.16821H395C399.142 1.16821 402.5 4.52608 402.5 8.66821V24.6682C402.5 28.8103 399.142 32.1682 395 32.1682H7.99999C3.85785 32.1682 0.5 28.8103 0.5 24.6682V8.66821Z" stroke="#D8D7E8"/>
<path d="M17.54 21.1682C17.4373 21.1682 17.358 21.1402 17.302 21.0842C17.246 21.0189 17.218 20.9395 17.218 20.8462V11.7042C17.218 11.6015 17.246 11.5222 17.302 11.4662C17.358 11.4009 17.4373 11.3682 17.54 11.3682H21.096C21.7867 11.3682 22.384 11.4802 22.888 11.7042C23.4013 11.9282 23.798 12.2642 24.078 12.7122C24.358 13.1509 24.498 13.7015 24.498 14.3642C24.498 15.0269 24.358 15.5775 24.078 16.0162C23.798 16.4549 23.4013 16.7862 22.888 17.0102C22.384 17.2342 21.7867 17.3462 21.096 17.3462H18.618V20.8462C18.618 20.9395 18.5853 21.0189 18.52 21.0842C18.464 21.1402 18.3847 21.1682 18.282 21.1682H17.54ZM18.604 16.1702H21.026C21.7167 16.1702 22.2347 16.0162 22.58 15.7082C22.9253 15.4002 23.098 14.9522 23.098 14.3642C23.098 13.7855 22.93 13.3375 22.594 13.0202C22.258 12.7029 21.7353 12.5442 21.026 12.5442H18.604V16.1702ZM26.3544 21.1682C26.2611 21.1682 26.1818 21.1402 26.1164 21.0842C26.0604 21.0189 26.0324 20.9395 26.0324 20.8462V11.5502C26.0324 11.4569 26.0604 11.3822 26.1164 11.3262C26.1818 11.2609 26.2611 11.2282 26.3544 11.2282H27.0124C27.1151 11.2282 27.1944 11.2609 27.2504 11.3262C27.3064 11.3822 27.3344 11.4569 27.3344 11.5502V20.8462C27.3344 20.9395 27.3064 21.0189 27.2504 21.0842C27.1944 21.1402 27.1151 21.1682 27.0124 21.1682H26.3544ZM32.3207 21.3082C31.3594 21.3082 30.5941 21.0142 30.0247 20.4262C29.4554 19.8289 29.1427 19.0169 29.0867 17.9902C29.0774 17.8689 29.0727 17.7149 29.0727 17.5282C29.0727 17.3322 29.0774 17.1735 29.0867 17.0522C29.1241 16.3895 29.2781 15.8109 29.5487 15.3162C29.8194 14.8122 30.1881 14.4249 30.6547 14.1542C31.1307 13.8835 31.6861 13.7482 32.3207 13.7482C33.0301 13.7482 33.6227 13.8975 34.0987 14.1962C34.5841 14.4949 34.9527 14.9195 35.2047 15.4702C35.4567 16.0209 35.5827 16.6649 35.5827 17.4022V17.6402C35.5827 17.7429 35.5501 17.8222 35.4847 17.8782C35.4287 17.9342 35.3541 17.9622 35.2607 17.9622H30.4167C30.4167 17.9715 30.4167 17.9902 30.4167 18.0182C30.4167 18.0462 30.4167 18.0695 30.4167 18.0882C30.4354 18.4709 30.5194 18.8302 30.6687 19.1662C30.8181 19.4929 31.0327 19.7589 31.3127 19.9642C31.5927 20.1695 31.9287 20.2722 32.3207 20.2722C32.6567 20.2722 32.9367 20.2209 33.1607 20.1182C33.3847 20.0155 33.5667 19.9035 33.7067 19.7822C33.8467 19.6515 33.9401 19.5535 33.9867 19.4882C34.0707 19.3669 34.1361 19.2969 34.1827 19.2782C34.2294 19.2502 34.3041 19.2362 34.4067 19.2362H35.0787C35.1721 19.2362 35.2467 19.2642 35.3027 19.3202C35.3681 19.3669 35.3961 19.4369 35.3867 19.5302C35.3774 19.6702 35.3027 19.8429 35.1627 20.0482C35.0227 20.2442 34.8221 20.4402 34.5607 20.6362C34.2994 20.8322 33.9821 20.9955 33.6087 21.1262C33.2354 21.2475 32.8061 21.3082 32.3207 21.3082ZM30.4167 16.9962H34.2527V16.9542C34.2527 16.5342 34.1734 16.1609 34.0147 15.8342C33.8654 15.5075 33.6461 15.2509 33.3567 15.0642C33.0674 14.8682 32.7221 14.7702 32.3207 14.7702C31.9194 14.7702 31.5741 14.8682 31.2847 15.0642C31.0047 15.2509 30.7901 15.5075 30.6407 15.8342C30.4914 16.1609 30.4167 16.5342 30.4167 16.9542V16.9962ZM39.2867 21.3082C38.82 21.3082 38.3954 21.2149 38.0127 21.0282C37.63 20.8415 37.322 20.5895 37.0887 20.2722C36.8554 19.9549 36.7387 19.5955 36.7387 19.1942C36.7387 18.5502 37 18.0369 37.5227 17.6542C38.0454 17.2715 38.7267 17.0195 39.5667 16.8982L41.6527 16.6042V16.1982C41.6527 15.7502 41.522 15.4002 41.2607 15.1482C41.0087 14.8962 40.5934 14.7702 40.0147 14.7702C39.5947 14.7702 39.254 14.8542 38.9927 15.0222C38.7407 15.1902 38.5634 15.4049 38.4607 15.6662C38.4047 15.8062 38.3067 15.8762 38.1667 15.8762H37.5367C37.434 15.8762 37.3547 15.8482 37.2987 15.7922C37.252 15.7269 37.2287 15.6522 37.2287 15.5682C37.2287 15.4282 37.28 15.2555 37.3827 15.0502C37.4947 14.8449 37.6627 14.6442 37.8867 14.4482C38.1107 14.2522 38.3954 14.0889 38.7407 13.9582C39.0954 13.8182 39.5247 13.7482 40.0287 13.7482C40.5887 13.7482 41.06 13.8229 41.4427 13.9722C41.8254 14.1122 42.124 14.3035 42.3387 14.5462C42.5627 14.7889 42.7214 15.0642 42.8147 15.3722C42.9174 15.6802 42.9687 15.9929 42.9687 16.3102V20.8462C42.9687 20.9395 42.936 21.0189 42.8707 21.0842C42.8147 21.1402 42.74 21.1682 42.6467 21.1682H42.0027C41.9 21.1682 41.8207 21.1402 41.7647 21.0842C41.7087 21.0189 41.6807 20.9395 41.6807 20.8462V20.2442C41.5594 20.4122 41.396 20.5802 41.1907 20.7482C40.9854 20.9069 40.7287 21.0422 40.4207 21.1542C40.1127 21.2569 39.7347 21.3082 39.2867 21.3082ZM39.5807 20.2582C39.9634 20.2582 40.3134 20.1789 40.6307 20.0202C40.948 19.8522 41.1954 19.5955 41.3727 19.2502C41.5594 18.9049 41.6527 18.4709 41.6527 17.9482V17.5562L40.0287 17.7942C39.366 17.8875 38.8667 18.0462 38.5307 18.2702C38.1947 18.4849 38.0267 18.7602 38.0267 19.0962C38.0267 19.3575 38.1014 19.5769 38.2507 19.7542C38.4094 19.9222 38.6054 20.0482 38.8387 20.1322C39.0814 20.2162 39.3287 20.2582 39.5807 20.2582ZM47.5013 21.3082C46.9786 21.3082 46.5306 21.2429 46.1573 21.1122C45.784 20.9815 45.4806 20.8229 45.2473 20.6362C45.014 20.4495 44.8366 20.2629 44.7153 20.0762C44.6033 19.8895 44.5426 19.7402 44.5333 19.6282C44.524 19.5255 44.5566 19.4462 44.6313 19.3902C44.706 19.3342 44.7806 19.3062 44.8553 19.3062H45.4713C45.5273 19.3062 45.5693 19.3155 45.5973 19.3342C45.6346 19.3435 45.6813 19.3809 45.7373 19.4462C45.8586 19.5769 45.994 19.7075 46.1433 19.8382C46.2926 19.9689 46.4746 20.0762 46.6893 20.1602C46.9133 20.2442 47.1886 20.2862 47.5153 20.2862C47.9913 20.2862 48.3833 20.1975 48.6913 20.0202C48.9993 19.8335 49.1533 19.5629 49.1533 19.2082C49.1533 18.9749 49.088 18.7882 48.9573 18.6482C48.836 18.5082 48.612 18.3822 48.2853 18.2702C47.968 18.1582 47.5293 18.0415 46.9693 17.9202C46.4093 17.7895 45.966 17.6309 45.6393 17.4442C45.3126 17.2482 45.0793 17.0195 44.9393 16.7582C44.7993 16.4875 44.7293 16.1842 44.7293 15.8482C44.7293 15.5029 44.832 15.1715 45.0373 14.8542C45.2426 14.5275 45.5413 14.2615 45.9333 14.0562C46.3346 13.8509 46.834 13.7482 47.4313 13.7482C47.9166 13.7482 48.332 13.8089 48.6773 13.9302C49.0226 14.0515 49.3073 14.2055 49.5313 14.3922C49.7553 14.5695 49.9233 14.7469 50.0353 14.9242C50.1473 15.1015 50.208 15.2509 50.2173 15.3722C50.2266 15.4655 50.1986 15.5449 50.1333 15.6102C50.068 15.6662 49.9933 15.6942 49.9093 15.6942H49.3213C49.256 15.6942 49.2 15.6802 49.1533 15.6522C49.116 15.6242 49.0786 15.5915 49.0413 15.5542C48.948 15.4329 48.836 15.3115 48.7053 15.1902C48.584 15.0689 48.4206 14.9709 48.2153 14.8962C48.0193 14.8122 47.758 14.7702 47.4313 14.7702C46.9646 14.7702 46.6146 14.8682 46.3813 15.0642C46.148 15.2602 46.0313 15.5075 46.0313 15.8062C46.0313 15.9835 46.0826 16.1422 46.1853 16.2822C46.288 16.4222 46.484 16.5482 46.7733 16.6602C47.0626 16.7722 47.492 16.8935 48.0613 17.0242C48.6773 17.1455 49.1626 17.3089 49.5173 17.5142C49.872 17.7195 50.124 17.9575 50.2733 18.2282C50.4226 18.4989 50.4973 18.8115 50.4973 19.1662C50.4973 19.5582 50.3806 19.9175 50.1473 20.2442C49.9233 20.5709 49.5873 20.8322 49.1393 21.0282C48.7006 21.2149 48.1546 21.3082 47.5013 21.3082ZM55.016 21.3082C54.0547 21.3082 53.2894 21.0142 52.72 20.4262C52.1507 19.8289 51.838 19.0169 51.782 17.9902C51.7727 17.8689 51.768 17.7149 51.768 17.5282C51.768 17.3322 51.7727 17.1735 51.782 17.0522C51.8194 16.3895 51.9734 15.8109 52.244 15.3162C52.5147 14.8122 52.8834 14.4249 53.35 14.1542C53.826 13.8835 54.3814 13.7482 55.016 13.7482C55.7254 13.7482 56.318 13.8975 56.794 14.1962C57.2794 14.4949 57.648 14.9195 57.9 15.4702C58.152 16.0209 58.278 16.6649 58.278 17.4022V17.6402C58.278 17.7429 58.2454 17.8222 58.18 17.8782C58.124 17.9342 58.0494 17.9622 57.956 17.9622H53.112C53.112 17.9715 53.112 17.9902 53.112 18.0182C53.112 18.0462 53.112 18.0695 53.112 18.0882C53.1307 18.4709 53.2147 18.8302 53.364 19.1662C53.5134 19.4929 53.728 19.7589 54.008 19.9642C54.288 20.1695 54.624 20.2722 55.016 20.2722C55.352 20.2722 55.632 20.2209 55.856 20.1182C56.08 20.0155 56.262 19.9035 56.402 19.7822C56.542 19.6515 56.6354 19.5535 56.682 19.4882C56.766 19.3669 56.8314 19.2969 56.878 19.2782C56.9247 19.2502 56.9994 19.2362 57.102 19.2362H57.774C57.8674 19.2362 57.942 19.2642 57.998 19.3202C58.0634 19.3669 58.0914 19.4369 58.082 19.5302C58.0727 19.6702 57.998 19.8429 57.858 20.0482C57.718 20.2442 57.5174 20.4402 57.256 20.6362C56.9947 20.8322 56.6774 20.9955 56.304 21.1262C55.9307 21.2475 55.5014 21.3082 55.016 21.3082ZM53.112 16.9962H56.948V16.9542C56.948 16.5342 56.8687 16.1609 56.71 15.8342C56.5607 15.5075 56.3414 15.2509 56.052 15.0642C55.7627 14.8682 55.4174 14.7702 55.016 14.7702C54.6147 14.7702 54.2694 14.8682 53.98 15.0642C53.7 15.2509 53.4854 15.5075 53.336 15.8342C53.1867 16.1609 53.112 16.5342 53.112 16.9542V16.9962ZM63.8877 21.1682C63.785 21.1682 63.7057 21.1402 63.6497 21.0842C63.5937 21.0189 63.5657 20.9395 63.5657 20.8462V11.6902C63.5657 11.5969 63.5937 11.5222 63.6497 11.4662C63.7057 11.4009 63.785 11.3682 63.8877 11.3682H64.6297C64.723 11.3682 64.7977 11.4009 64.8537 11.4662C64.919 11.5222 64.9517 11.5969 64.9517 11.6902V20.8462C64.9517 20.9395 64.919 21.0189 64.8537 21.0842C64.7977 21.1402 64.723 21.1682 64.6297 21.1682H63.8877ZM67.5338 21.1682C67.4404 21.1682 67.3611 21.1402 67.2958 21.0842C67.2398 21.0189 67.2118 20.9395 67.2118 20.8462V14.2102C67.2118 14.1169 67.2398 14.0422 67.2958 13.9862C67.3611 13.9209 67.4404 13.8882 67.5338 13.8882H68.1918C68.2851 13.8882 68.3598 13.9209 68.4158 13.9862C68.4811 14.0422 68.5138 14.1169 68.5138 14.2102V14.8262C68.7564 14.5089 69.0598 14.2522 69.4238 14.0562C69.7971 13.8509 70.2731 13.7482 70.8518 13.7482C71.4584 13.7482 71.9718 13.8835 72.3918 14.1542C72.8211 14.4155 73.1431 14.7842 73.3578 15.2602C73.5724 15.7269 73.6798 16.2729 73.6798 16.8982V20.8462C73.6798 20.9395 73.6518 21.0189 73.5958 21.0842C73.5398 21.1402 73.4651 21.1682 73.3718 21.1682H72.6718C72.5784 21.1682 72.4991 21.1402 72.4338 21.0842C72.3778 21.0189 72.3498 20.9395 72.3498 20.8462V16.9682C72.3498 16.3149 72.1911 15.8062 71.8738 15.4422C71.5564 15.0689 71.0898 14.8822 70.4738 14.8822C69.8951 14.8822 69.4284 15.0689 69.0738 15.4422C68.7284 15.8062 68.5558 16.3149 68.5558 16.9682V20.8462C68.5558 20.9395 68.5231 21.0189 68.4578 21.0842C68.4018 21.1402 68.3271 21.1682 68.2338 21.1682H67.5338ZM76.038 23.8282C75.9447 23.8282 75.8653 23.7955 75.8 23.7302C75.744 23.6742 75.716 23.5995 75.716 23.5062V14.2102C75.716 14.1169 75.744 14.0422 75.8 13.9862C75.8653 13.9209 75.9447 13.8882 76.038 13.8882H76.682C76.7753 13.8882 76.85 13.9209 76.906 13.9862C76.9713 14.0422 77.004 14.1169 77.004 14.2102V14.8262C77.228 14.5182 77.5267 14.2615 77.9 14.0562C78.2733 13.8509 78.74 13.7482 79.3 13.7482C79.8227 13.7482 80.266 13.8369 80.63 14.0142C81.0033 14.1915 81.3067 14.4342 81.54 14.7422C81.7827 15.0502 81.9647 15.4002 82.086 15.7922C82.2073 16.1842 82.2727 16.6042 82.282 17.0522C82.2913 17.2015 82.296 17.3602 82.296 17.5282C82.296 17.6962 82.2913 17.8549 82.282 18.0042C82.2727 18.4429 82.2073 18.8629 82.086 19.2642C81.9647 19.6562 81.7827 20.0062 81.54 20.3142C81.3067 20.6129 81.0033 20.8555 80.63 21.0422C80.266 21.2195 79.8227 21.3082 79.3 21.3082C78.7587 21.3082 78.3013 21.2102 77.928 21.0142C77.564 20.8089 77.2653 20.5569 77.032 20.2582V23.5062C77.032 23.5995 77.004 23.6742 76.948 23.7302C76.892 23.7955 76.8127 23.8282 76.71 23.8282H76.038ZM79.006 20.1742C79.4913 20.1742 79.8693 20.0715 80.14 19.8662C80.42 19.6515 80.6207 19.3762 80.742 19.0402C80.8633 18.6949 80.9333 18.3262 80.952 17.9342C80.9613 17.6635 80.9613 17.3929 80.952 17.1222C80.9333 16.7302 80.8633 16.3662 80.742 16.0302C80.6207 15.6849 80.42 15.4095 80.14 15.2042C79.8693 14.9895 79.4913 14.8822 79.006 14.8822C78.5487 14.8822 78.1753 14.9895 77.886 15.2042C77.606 15.4189 77.396 15.6942 77.256 16.0302C77.1253 16.3569 77.0507 16.6929 77.032 17.0382C77.0227 17.1875 77.018 17.3649 77.018 17.5702C77.018 17.7755 77.0227 17.9575 77.032 18.1162C77.0413 18.4429 77.116 18.7649 77.256 19.0822C77.4053 19.3995 77.6247 19.6609 77.914 19.8662C78.2033 20.0715 78.5673 20.1742 79.006 20.1742ZM86.7579 21.3082C86.1605 21.3082 85.6519 21.1775 85.2319 20.9162C84.8212 20.6455 84.5085 20.2722 84.2939 19.7962C84.0792 19.3202 83.9719 18.7742 83.9719 18.1582V14.2102C83.9719 14.1169 83.9999 14.0422 84.0559 13.9862C84.1212 13.9209 84.2005 13.8882 84.2939 13.8882H84.9939C85.0872 13.8882 85.1619 13.9209 85.2179 13.9862C85.2832 14.0422 85.3159 14.1169 85.3159 14.2102V18.0882C85.3159 19.4789 85.9225 20.1742 87.1359 20.1742C87.7145 20.1742 88.1765 19.9922 88.5219 19.6282C88.8765 19.2549 89.0539 18.7415 89.0539 18.0882V14.2102C89.0539 14.1169 89.0819 14.0422 89.1379 13.9862C89.2032 13.9209 89.2825 13.8882 89.3759 13.8882H90.0619C90.1645 13.8882 90.2439 13.9209 90.2999 13.9862C90.3559 14.0422 90.3839 14.1169 90.3839 14.2102V20.8462C90.3839 20.9395 90.3559 21.0189 90.2999 21.0842C90.2439 21.1402 90.1645 21.1682 90.0619 21.1682H89.4179C89.3245 21.1682 89.2452 21.1402 89.1799 21.0842C89.1239 21.0189 89.0959 20.9395 89.0959 20.8462V20.2302C88.8439 20.5569 88.5359 20.8182 88.1719 21.0142C87.8172 21.2102 87.3459 21.3082 86.7579 21.3082ZM95.3057 21.1682C94.7831 21.1682 94.3584 21.0702 94.0317 20.8742C93.7051 20.6689 93.4671 20.3842 93.3177 20.0202C93.1684 19.6469 93.0937 19.2082 93.0937 18.7042V15.0082H92.0017C91.9084 15.0082 91.8291 14.9802 91.7637 14.9242C91.7077 14.8589 91.6797 14.7795 91.6797 14.6862V14.2102C91.6797 14.1169 91.7077 14.0422 91.7637 13.9862C91.8291 13.9209 91.9084 13.8882 92.0017 13.8882H93.0937V11.5502C93.0937 11.4569 93.1217 11.3822 93.1777 11.3262C93.2431 11.2609 93.3224 11.2282 93.4157 11.2282H94.0737C94.1671 11.2282 94.2417 11.2609 94.2977 11.3262C94.3631 11.3822 94.3957 11.4569 94.3957 11.5502V13.8882H96.1317C96.2251 13.8882 96.2997 13.9209 96.3557 13.9862C96.4211 14.0422 96.4537 14.1169 96.4537 14.2102V14.6862C96.4537 14.7795 96.4211 14.8589 96.3557 14.9242C96.2997 14.9802 96.2251 15.0082 96.1317 15.0082H94.3957V18.6062C94.3957 19.0449 94.4704 19.3902 94.6197 19.6422C94.7691 19.8942 95.0351 20.0202 95.4177 20.0202H96.2717C96.3651 20.0202 96.4397 20.0529 96.4957 20.1182C96.5611 20.1742 96.5937 20.2489 96.5937 20.3422V20.8462C96.5937 20.9395 96.5611 21.0189 96.4957 21.0842C96.4397 21.1402 96.3651 21.1682 96.2717 21.1682H95.3057ZM101.7 21.1682C101.607 21.1682 101.527 21.1402 101.462 21.0842C101.406 21.0189 101.378 20.9395 101.378 20.8462V11.5502C101.378 11.4569 101.406 11.3822 101.462 11.3262C101.527 11.2609 101.607 11.2282 101.7 11.2282H102.4C102.503 11.2282 102.582 11.2609 102.638 11.3262C102.694 11.3822 102.722 11.4569 102.722 11.5502V14.8122C102.974 14.4949 103.282 14.2382 103.646 14.0422C104.01 13.8462 104.472 13.7482 105.032 13.7482C105.639 13.7482 106.152 13.8835 106.572 14.1542C107.001 14.4155 107.323 14.7842 107.538 15.2602C107.762 15.7269 107.874 16.2729 107.874 16.8982V20.8462C107.874 20.9395 107.846 21.0189 107.79 21.0842C107.734 21.1402 107.655 21.1682 107.552 21.1682H106.852C106.759 21.1682 106.679 21.1402 106.614 21.0842C106.558 21.0189 106.53 20.9395 106.53 20.8462V16.9682C106.53 16.3149 106.371 15.8062 106.054 15.4422C105.737 15.0689 105.27 14.8822 104.654 14.8822C104.075 14.8822 103.609 15.0689 103.254 15.4422C102.899 15.8062 102.722 16.3149 102.722 16.9682V20.8462C102.722 20.9395 102.694 21.0189 102.638 21.0842C102.582 21.1402 102.503 21.1682 102.4 21.1682H101.7ZM112.793 21.3082C111.832 21.3082 111.067 21.0142 110.497 20.4262C109.928 19.8289 109.615 19.0169 109.559 17.9902C109.55 17.8689 109.545 17.7149 109.545 17.5282C109.545 17.3322 109.55 17.1735 109.559 17.0522C109.597 16.3895 109.751 15.8109 110.021 15.3162C110.292 14.8122 110.661 14.4249 111.127 14.1542C111.603 13.8835 112.159 13.7482 112.793 13.7482C113.503 13.7482 114.095 13.8975 114.571 14.1962C115.057 14.4949 115.425 14.9195 115.677 15.4702C115.929 16.0209 116.055 16.6649 116.055 17.4022V17.6402C116.055 17.7429 116.023 17.8222 115.957 17.8782C115.901 17.9342 115.827 17.9622 115.733 17.9622H110.889C110.889 17.9715 110.889 17.9902 110.889 18.0182C110.889 18.0462 110.889 18.0695 110.889 18.0882C110.908 18.4709 110.992 18.8302 111.141 19.1662C111.291 19.4929 111.505 19.7589 111.785 19.9642C112.065 20.1695 112.401 20.2722 112.793 20.2722C113.129 20.2722 113.409 20.2209 113.633 20.1182C113.857 20.0155 114.039 19.9035 114.179 19.7822C114.319 19.6515 114.413 19.5535 114.459 19.4882C114.543 19.3669 114.609 19.2969 114.655 19.2782C114.702 19.2502 114.777 19.2362 114.879 19.2362H115.551C115.645 19.2362 115.719 19.2642 115.775 19.3202C115.841 19.3669 115.869 19.4369 115.859 19.5302C115.85 19.6702 115.775 19.8429 115.635 20.0482C115.495 20.2442 115.295 20.4402 115.033 20.6362C114.772 20.8322 114.455 20.9955 114.081 21.1262C113.708 21.2475 113.279 21.3082 112.793 21.3082ZM110.889 16.9962H114.725V16.9542C114.725 16.5342 114.646 16.1609 114.487 15.8342C114.338 15.5075 114.119 15.2509 113.829 15.0642C113.54 14.8682 113.195 14.7702 112.793 14.7702C112.392 14.7702 112.047 14.8682 111.757 15.0642C111.477 15.2509 111.263 15.5075 111.113 15.8342C110.964 16.1609 110.889 16.5342 110.889 16.9542V16.9962ZM118.051 21.1682C117.958 21.1682 117.879 21.1402 117.813 21.0842C117.757 21.0189 117.729 20.9395 117.729 20.8462V14.2242C117.729 14.1309 117.757 14.0515 117.813 13.9862C117.879 13.9209 117.958 13.8882 118.051 13.8882H118.695C118.789 13.8882 118.868 13.9209 118.933 13.9862C118.999 14.0515 119.031 14.1309 119.031 14.2242V14.8402C119.218 14.5229 119.475 14.2849 119.801 14.1262C120.128 13.9675 120.52 13.8882 120.977 13.8882H121.537C121.631 13.8882 121.705 13.9209 121.761 13.9862C121.817 14.0422 121.845 14.1169 121.845 14.2102V14.7842C121.845 14.8775 121.817 14.9522 121.761 15.0082C121.705 15.0642 121.631 15.0922 121.537 15.0922H120.697C120.193 15.0922 119.797 15.2415 119.507 15.5402C119.218 15.8295 119.073 16.2262 119.073 16.7302V20.8462C119.073 20.9395 119.041 21.0189 118.975 21.0842C118.91 21.1402 118.831 21.1682 118.737 21.1682H118.051ZM125.809 21.3082C124.848 21.3082 124.082 21.0142 123.513 20.4262C122.944 19.8289 122.631 19.0169 122.575 17.9902C122.566 17.8689 122.561 17.7149 122.561 17.5282C122.561 17.3322 122.566 17.1735 122.575 17.0522C122.612 16.3895 122.766 15.8109 123.037 15.3162C123.308 14.8122 123.676 14.4249 124.143 14.1542C124.619 13.8835 125.174 13.7482 125.809 13.7482C126.518 13.7482 127.111 13.8975 127.587 14.1962C128.072 14.4949 128.441 14.9195 128.693 15.4702C128.945 16.0209 129.071 16.6649 129.071 17.4022V17.6402C129.071 17.7429 129.038 17.8222 128.973 17.8782C128.917 17.9342 128.842 17.9622 128.749 17.9622H123.905C123.905 17.9715 123.905 17.9902 123.905 18.0182C123.905 18.0462 123.905 18.0695 123.905 18.0882C123.924 18.4709 124.008 18.8302 124.157 19.1662C124.306 19.4929 124.521 19.7589 124.801 19.9642C125.081 20.1695 125.417 20.2722 125.809 20.2722C126.145 20.2722 126.425 20.2209 126.649 20.1182C126.873 20.0155 127.055 19.9035 127.195 19.7822C127.335 19.6515 127.428 19.5535 127.475 19.4882C127.559 19.3669 127.624 19.2969 127.671 19.2782C127.718 19.2502 127.792 19.2362 127.895 19.2362H128.567C128.66 19.2362 128.735 19.2642 128.791 19.3202C128.856 19.3669 128.884 19.4369 128.875 19.5302C128.866 19.6702 128.791 19.8429 128.651 20.0482C128.511 20.2442 128.31 20.4402 128.049 20.6362C127.788 20.8322 127.47 20.9955 127.097 21.1262C126.724 21.2475 126.294 21.3082 125.809 21.3082ZM123.905 16.9962H127.741V16.9542C127.741 16.5342 127.662 16.1609 127.503 15.8342C127.354 15.5075 127.134 15.2509 126.845 15.0642C126.556 14.8682 126.21 14.7702 125.809 14.7702C125.408 14.7702 125.062 14.8682 124.773 15.0642C124.493 15.2509 124.278 15.5075 124.129 15.8342C123.98 16.1609 123.905 16.5342 123.905 16.9542V16.9962ZM130.969 21.1682C130.876 21.1682 130.796 21.1402 130.731 21.0842C130.675 21.0189 130.647 20.9395 130.647 20.8462V19.8382C130.647 19.7449 130.675 19.6702 130.731 19.6142C130.796 19.5489 130.876 19.5162 130.969 19.5162H131.977C132.07 19.5162 132.145 19.5489 132.201 19.6142C132.266 19.6702 132.299 19.7449 132.299 19.8382V20.8462C132.299 20.9395 132.266 21.0189 132.201 21.0842C132.145 21.1402 132.07 21.1682 131.977 21.1682H130.969Z" fill="#B3B3B3"/>
<path d="M375 18.6682C375.53 18.6682 376.039 18.4575 376.414 18.0824C376.789 17.7074 377 17.1986 377 16.6682C377 16.1378 376.789 15.6291 376.414 15.254C376.039 14.8789 375.53 14.6682 375 14.6682C374.47 14.6682 373.961 14.8789 373.586 15.254C373.211 15.6291 373 16.1378 373 16.6682C373 17.1986 373.211 17.7074 373.586 18.0824C373.961 18.4575 374.47 18.6682 375 18.6682Z" stroke="#4C4C4C" stroke-width="1.5" stroke-linecap="round" stroke-linejoin="round"/>
<path d="M384 16.6682C382.111 19.6592 378.718 22.6682 375 22.6682C371.282 22.6682 367.889 19.6592 366 16.6682C368.299 13.8262 370.992 10.6682 375 10.6682C379.008 10.6682 381.701 13.8262 384 16.6682Z" stroke="#4C4C4C" stroke-width="1.5" stroke-linecap="round" stroke-linejoin="round"/>
</svg>
