<svg width="72" height="25" viewBox="0 0 72 25" fill="none" xmlns="http://www.w3.org/2000/svg">
<path d="M3.33337 18.3333V6.66667C3.33337 6.22464 3.50897 5.80072 3.82153 5.48816C4.13409 5.17559 4.55801 5 5.00004 5H16.1667C16.2993 5 16.4265 5.05268 16.5203 5.14645C16.614 5.24021 16.6667 5.36739 16.6667 5.5V16.4283" stroke="#4C4C4C" stroke-width="1.5" stroke-linecap="round"/>
<path d="M8.33337 14.1667C8.33337 14.1667 9.08337 11.5683 10.8334 10" stroke="#4C4C4C" stroke-width="1.5" stroke-linecap="round" stroke-linejoin="round"/>
<path d="M10.6684 12.8543L10.5567 12.8643C9.87862 12.9275 9.20309 12.7199 8.67755 12.2868C8.15202 11.8537 7.81918 11.2303 7.75168 10.5526C7.71837 10.2181 7.75155 9.88021 7.84931 9.55851C7.94708 9.23681 8.1075 8.93762 8.32134 8.67816C8.53518 8.4187 8.79823 8.20409 9.09533 8.04668C9.39244 7.88927 9.71774 7.79218 10.0525 7.76098L12.5409 7.52764C12.6176 7.52044 12.6941 7.54392 12.7536 7.59296C12.8131 7.64199 12.8508 7.71259 12.8584 7.78931L13.0709 9.93931C13.1058 10.2887 13.0712 10.6415 12.9692 10.9775C12.8672 11.3135 12.6997 11.6259 12.4763 11.8969C12.253 12.1678 11.9783 12.3919 11.668 12.5562C11.3577 12.7206 11.018 12.8219 10.6684 12.8543Z" stroke="#4C4C4C" stroke-width="1.5" stroke-linecap="round" stroke-linejoin="round"/>
<path d="M5 16.6665H16.6667M5 19.9998H16.6667" stroke="#4C4C4C" stroke-width="1.5" stroke-linecap="round"/>
<path d="M5.00004 19.9998C4.55801 19.9998 4.13409 19.8242 3.82153 19.5117C3.50897 19.1991 3.33337 18.7752 3.33337 18.3332C3.33337 17.8911 3.50897 17.4672 3.82153 17.1547C4.13409 16.8421 4.55801 16.6665 5.00004 16.6665" stroke="#4C4C4C" stroke-width="1.5" stroke-linecap="round" stroke-linejoin="round"/>
<path d="M31.26 19.5C31.1267 19.5 31.0133 19.46 30.92 19.38C30.84 19.2867 30.8 19.1733 30.8 19.04V7.28H26.96C26.8267 7.28 26.7133 7.24 26.62 7.16C26.54 7.06667 26.5 6.95333 26.5 6.82V5.98C26.5 5.83333 26.54 5.72 26.62 5.64C26.7133 5.54667 26.8267 5.5 26.96 5.5H36.6C36.7467 5.5 36.86 5.54667 36.94 5.64C37.0333 5.72 37.08 5.83333 37.08 5.98V6.82C37.08 6.95333 37.0333 7.06667 36.94 7.16C36.86 7.24 36.7467 7.28 36.6 7.28H32.78V19.04C32.78 19.1733 32.7333 19.2867 32.64 19.38C32.56 19.46 32.4467 19.5 32.3 19.5H31.26ZM37.9009 19.5C37.7676 19.5 37.6543 19.46 37.5609 19.38C37.4809 19.2867 37.4409 19.1733 37.4409 19.04V9.58C37.4409 9.44667 37.4809 9.33333 37.5609 9.24C37.6543 9.14667 37.7676 9.1 37.9009 9.1H38.8209C38.9543 9.1 39.0676 9.14667 39.1609 9.24C39.2543 9.33333 39.3009 9.44667 39.3009 9.58V10.46C39.5676 10.0067 39.9343 9.66667 40.4009 9.44C40.8676 9.21333 41.4276 9.1 42.0809 9.1H42.8809C43.0143 9.1 43.1209 9.14667 43.2009 9.24C43.2809 9.32 43.3209 9.42667 43.3209 9.56V10.38C43.3209 10.5133 43.2809 10.62 43.2009 10.7C43.1209 10.78 43.0143 10.82 42.8809 10.82H41.6809C40.9609 10.82 40.3943 11.0333 39.9809 11.46C39.5676 11.8733 39.3609 12.44 39.3609 13.16V19.04C39.3609 19.1733 39.3143 19.2867 39.2209 19.38C39.1276 19.46 39.0143 19.5 38.8809 19.5H37.9009ZM47.7823 19.7C47.1157 19.7 46.509 19.5667 45.9623 19.3C45.4157 19.0333 44.9757 18.6733 44.6423 18.22C44.309 17.7667 44.1423 17.2533 44.1423 16.68C44.1423 15.76 44.5157 15.0267 45.2623 14.48C46.009 13.9333 46.9823 13.5733 48.1823 13.4L51.1623 12.98V12.4C51.1623 11.76 50.9757 11.26 50.6023 10.9C50.2423 10.54 49.649 10.36 48.8223 10.36C48.2223 10.36 47.7357 10.48 47.3623 10.72C47.0023 10.96 46.749 11.2667 46.6023 11.64C46.5223 11.84 46.3823 11.94 46.1823 11.94H45.2823C45.1357 11.94 45.0223 11.9 44.9423 11.82C44.8757 11.7267 44.8423 11.62 44.8423 11.5C44.8423 11.3 44.9157 11.0533 45.0623 10.76C45.2223 10.4667 45.4623 10.18 45.7823 9.9C46.1023 9.62 46.509 9.38667 47.0023 9.2C47.509 9 48.1223 8.9 48.8423 8.9C49.6423 8.9 50.3157 9.00667 50.8623 9.22C51.409 9.42 51.8357 9.69333 52.1423 10.04C52.4623 10.3867 52.689 10.78 52.8223 11.22C52.969 11.66 53.0423 12.1067 53.0423 12.56V19.04C53.0423 19.1733 52.9957 19.2867 52.9023 19.38C52.8223 19.46 52.7157 19.5 52.5823 19.5H51.6623C51.5157 19.5 51.4023 19.46 51.3223 19.38C51.2423 19.2867 51.2023 19.1733 51.2023 19.04V18.18C51.029 18.42 50.7957 18.66 50.5023 18.9C50.209 19.1267 49.8423 19.32 49.4023 19.48C48.9623 19.6267 48.4223 19.7 47.7823 19.7ZM48.2023 18.2C48.749 18.2 49.249 18.0867 49.7023 17.86C50.1557 17.62 50.509 17.2533 50.7623 16.76C51.029 16.2667 51.1623 15.6467 51.1623 14.9V14.34L48.8423 14.68C47.8957 14.8133 47.1823 15.04 46.7023 15.36C46.2223 15.6667 45.9823 16.06 45.9823 16.54C45.9823 16.9133 46.089 17.2267 46.3023 17.48C46.529 17.72 46.809 17.9 47.1423 18.02C47.489 18.14 47.8423 18.2 48.2023 18.2ZM56.3775 19.5C56.2442 19.5 56.1308 19.46 56.0375 19.38C55.9575 19.2867 55.9175 19.1733 55.9175 19.04V9.56C55.9175 9.42667 55.9575 9.32 56.0375 9.24C56.1308 9.14667 56.2442 9.1 56.3775 9.1H57.3375C57.4708 9.1 57.5775 9.14667 57.6575 9.24C57.7375 9.32 57.7775 9.42667 57.7775 9.56V19.04C57.7775 19.1733 57.7375 19.2867 57.6575 19.38C57.5775 19.46 57.4708 19.5 57.3375 19.5H56.3775ZM56.2175 7.16C56.0842 7.16 55.9708 7.12 55.8775 7.04C55.7975 6.94667 55.7575 6.83333 55.7575 6.7V5.62C55.7575 5.48667 55.7975 5.38 55.8775 5.3C55.9708 5.20667 56.0842 5.16 56.2175 5.16H57.4775C57.6108 5.16 57.7175 5.20667 57.7975 5.3C57.8908 5.38 57.9375 5.48667 57.9375 5.62V6.7C57.9375 6.83333 57.8908 6.94667 57.7975 7.04C57.7175 7.12 57.6108 7.16 57.4775 7.16H56.2175ZM61.4166 19.5C61.2832 19.5 61.1699 19.46 61.0766 19.38C60.9966 19.2867 60.9566 19.1733 60.9566 19.04V9.56C60.9566 9.42667 60.9966 9.32 61.0766 9.24C61.1699 9.14667 61.2832 9.1 61.4166 9.1H62.3566C62.4899 9.1 62.5966 9.14667 62.6766 9.24C62.7699 9.32 62.8166 9.42667 62.8166 9.56V10.44C63.1632 9.98667 63.5966 9.62 64.1166 9.34C64.6499 9.04667 65.3299 8.9 66.1566 8.9C67.0232 8.9 67.7566 9.09333 68.3566 9.48C68.9699 9.85333 69.4299 10.38 69.7366 11.06C70.0432 11.7267 70.1966 12.5067 70.1966 13.4V19.04C70.1966 19.1733 70.1566 19.2867 70.0766 19.38C69.9966 19.46 69.8899 19.5 69.7566 19.5H68.7566C68.6232 19.5 68.5099 19.46 68.4166 19.38C68.3366 19.2867 68.2966 19.1733 68.2966 19.04V13.5C68.2966 12.5667 68.0699 11.84 67.6166 11.32C67.1632 10.7867 66.4966 10.52 65.6166 10.52C64.7899 10.52 64.1232 10.7867 63.6166 11.32C63.1232 11.84 62.8766 12.5667 62.8766 13.5V19.04C62.8766 19.1733 62.8299 19.2867 62.7366 19.38C62.6566 19.46 62.5499 19.5 62.4166 19.5H61.4166Z" fill="#4C4C4C"/>
</svg>
