<svg width="64" height="25" viewBox="0 0 64 25" fill="none" xmlns="http://www.w3.org/2000/svg">
<path d="M14.1667 10.8335H16.6667M16.6667 10.8335H19.1667M16.6667 10.8335V8.3335M16.6667 10.8335V13.3335M0.833374 19.1668V18.3335C0.833374 16.7864 1.44796 15.3027 2.54192 14.2087C3.63588 13.1147 5.11961 12.5002 6.66671 12.5002M6.66671 12.5002C8.2138 12.5002 9.69753 13.1147 10.7915 14.2087C11.8855 15.3027 12.5 16.7864 12.5 18.3335V19.1668M6.66671 12.5002C7.55076 12.5002 8.39861 12.149 9.02373 11.5239C9.64885 10.8987 10 10.0509 10 9.16683C10 8.28277 9.64885 7.43493 9.02373 6.80981C8.39861 6.18469 7.55076 5.8335 6.66671 5.8335C5.78265 5.8335 4.93481 6.18469 4.30968 6.80981C3.68456 7.43493 3.33337 8.28277 3.33337 9.16683C3.33337 10.0509 3.68456 10.8987 4.30968 11.5239C4.93481 12.149 5.78265 12.5002 6.66671 12.5002Z" stroke="#063062" stroke-width="1.5" stroke-linecap="round" stroke-linejoin="round"/>
<path d="M28.2 19.5C28.0533 19.5 27.94 19.46 27.86 19.38C27.78 19.2867 27.74 19.1733 27.74 19.04V5.98C27.74 5.83333 27.78 5.72 27.86 5.64C27.94 5.54667 28.0533 5.5 28.2 5.5H29.22C29.3667 5.5 29.48 5.54667 29.56 5.64C29.6533 5.72 29.7 5.83333 29.7 5.98V11.5H36.58V5.98C36.58 5.83333 36.62 5.72 36.7 5.64C36.7933 5.54667 36.9067 5.5 37.04 5.5H38.06C38.2067 5.5 38.32 5.54667 38.4 5.64C38.4933 5.72 38.54 5.83333 38.54 5.98V19.04C38.54 19.1733 38.4933 19.2867 38.4 19.38C38.32 19.46 38.2067 19.5 38.06 19.5H37.04C36.9067 19.5 36.7933 19.46 36.7 19.38C36.62 19.2867 36.58 19.1733 36.58 19.04V13.3H29.7V19.04C29.7 19.1733 29.6533 19.2867 29.56 19.38C29.48 19.46 29.3667 19.5 29.22 19.5H28.2ZM42.1978 19.5C42.0645 19.5 41.9511 19.46 41.8578 19.38C41.7778 19.2867 41.7378 19.1733 41.7378 19.04V9.56C41.7378 9.42667 41.7778 9.32 41.8578 9.24C41.9511 9.14667 42.0645 9.1 42.1978 9.1H43.1578C43.2911 9.1 43.3978 9.14667 43.4778 9.24C43.5578 9.32 43.5978 9.42667 43.5978 9.56V19.04C43.5978 19.1733 43.5578 19.2867 43.4778 19.38C43.3978 19.46 43.2911 19.5 43.1578 19.5H42.1978ZM42.0378 7.16C41.9045 7.16 41.7911 7.12 41.6978 7.04C41.6178 6.94667 41.5778 6.83333 41.5778 6.7V5.62C41.5778 5.48667 41.6178 5.38 41.6978 5.3C41.7911 5.20667 41.9045 5.16 42.0378 5.16H43.2978C43.4311 5.16 43.5378 5.20667 43.6178 5.3C43.7111 5.38 43.7578 5.48667 43.7578 5.62V6.7C43.7578 6.83333 43.7111 6.94667 43.6178 7.04C43.5378 7.12 43.4311 7.16 43.2978 7.16H42.0378ZM47.2369 19.5C47.1035 19.5 46.9902 19.46 46.8969 19.38C46.8169 19.2867 46.7769 19.1733 46.7769 19.04V9.58C46.7769 9.44667 46.8169 9.33333 46.8969 9.24C46.9902 9.14667 47.1035 9.1 47.2369 9.1H48.1569C48.2902 9.1 48.4035 9.14667 48.4969 9.24C48.5902 9.33333 48.6369 9.44667 48.6369 9.58V10.46C48.9035 10.0067 49.2702 9.66667 49.7369 9.44C50.2035 9.21333 50.7635 9.1 51.4169 9.1H52.2169C52.3502 9.1 52.4569 9.14667 52.5369 9.24C52.6169 9.32 52.6569 9.42667 52.6569 9.56V10.38C52.6569 10.5133 52.6169 10.62 52.5369 10.7C52.4569 10.78 52.3502 10.82 52.2169 10.82H51.0169C50.2969 10.82 49.7302 11.0333 49.3169 11.46C48.9035 11.8733 48.6969 12.44 48.6969 13.16V19.04C48.6969 19.1733 48.6502 19.2867 48.5569 19.38C48.4635 19.46 48.3502 19.5 48.2169 19.5H47.2369ZM58.3192 19.7C56.9459 19.7 55.8526 19.28 55.0392 18.44C54.2259 17.5867 53.7792 16.4267 53.6992 14.96C53.6859 14.7867 53.6792 14.5667 53.6792 14.3C53.6792 14.02 53.6859 13.7933 53.6992 13.62C53.7526 12.6733 53.9726 11.8467 54.3592 11.14C54.7459 10.42 55.2726 9.86667 55.9392 9.48C56.6192 9.09333 57.4126 8.9 58.3192 8.9C59.3326 8.9 60.1792 9.11333 60.8592 9.54C61.5526 9.96667 62.0792 10.5733 62.4392 11.36C62.7992 12.1467 62.9792 13.0667 62.9792 14.12V14.46C62.9792 14.6067 62.9326 14.72 62.8392 14.8C62.7592 14.88 62.6526 14.92 62.5192 14.92H55.5992C55.5992 14.9333 55.5992 14.96 55.5992 15C55.5992 15.04 55.5992 15.0733 55.5992 15.1C55.6259 15.6467 55.7459 16.16 55.9592 16.64C56.1726 17.1067 56.4792 17.4867 56.8792 17.78C57.2792 18.0733 57.7592 18.22 58.3192 18.22C58.7992 18.22 59.1992 18.1467 59.5192 18C59.8392 17.8533 60.0992 17.6933 60.2992 17.52C60.4992 17.3333 60.6326 17.1933 60.6992 17.1C60.8192 16.9267 60.9126 16.8267 60.9792 16.8C61.0459 16.76 61.1526 16.74 61.2992 16.74H62.2592C62.3926 16.74 62.4992 16.78 62.5792 16.86C62.6726 16.9267 62.7126 17.0267 62.6992 17.16C62.6859 17.36 62.5792 17.6067 62.3792 17.9C62.1792 18.18 61.8926 18.46 61.5192 18.74C61.1459 19.02 60.6926 19.2533 60.1592 19.44C59.6259 19.6133 59.0126 19.7 58.3192 19.7ZM55.5992 13.54H61.0792V13.48C61.0792 12.88 60.9659 12.3467 60.7392 11.88C60.5259 11.4133 60.2126 11.0467 59.7992 10.78C59.3859 10.5 58.8926 10.36 58.3192 10.36C57.7459 10.36 57.2526 10.5 56.8392 10.78C56.4392 11.0467 56.1326 11.4133 55.9192 11.88C55.7059 12.3467 55.5992 12.88 55.5992 13.48V13.54Z" fill="#063062"/>
</svg>
